<svg xmlns="http://www.w3.org/2000/svg" xmlns:xlink="http://www.w3.org/1999/xlink" width="453" height="147" viewBox="0 0 453 147">
    <defs>
        <filter id="3d98rfdxbb" width="108.2%" height="125.5%" x="-4.1%" y="-12.7%" filterUnits="objectBoundingBox">
            <feOffset dy="2" in="SourceAlpha" result="shadowOffsetOuter1"/>
            <feGaussianBlur in="shadowOffsetOuter1" result="shadowBlurOuter1" stdDeviation="3"/>
            <feColorMatrix in="shadowBlurOuter1" result="shadowMatrixOuter1" values="0 0 0 0 0 0 0 0 0 0 0 0 0 0 0 0 0 0 0.06 0"/>
            <feMerge>
                <feMergeNode in="shadowMatrixOuter1"/>
                <feMergeNode in="SourceGraphic"/>
            </feMerge>
        </filter>
        <path id="fa9xus7swa" d="M0 0H453V147H0z"/>
    </defs>
    <g fill="none" fill-rule="evenodd">
        <g>
            <g transform="translate(-280 -3601) translate(280 3601)">
                <mask id="pisdwmnmdc" fill="#fff">
                    <use xlink:href="#fa9xus7swa"/>
                </mask>
                <use fill="#F9F9F9" xlink:href="#fa9xus7swa"/>
                <g filter="url(#3d98rfdxbb)" mask="url(#pisdwmnmdc)">
                    <g transform="translate(30 48.4)">
                        <path fill="#6236FF" fill-rule="nonzero" d="M132.733 26.348l8 4-8 4-.001-3.6h-31.988v-.8h31.988v-3.6zM277.426 26.077l8.04 3.919-7.96 4.08-.036-3.6-31.988.324-.008-.8 31.987-.324-.035-3.6zM113.098 86.2l-.001 3.599 31.989.001v.8l-31.989-.001V94.2l-8-4 8-4zM257.831 86.2v3.599l31.988.001v.8l-31.988-.001V94.2l-8-4 8-4z"/>
                        <rect width="99.8" height="124.8" x=".4" y=".4" fill="#FAFAFA" stroke="#000" stroke-opacity=".25" stroke-width=".8" rx="2.4"/>
                        <g>
                            <path fill="#6236FF" fill-rule="nonzero" d="M8.14 39.4v-2.49l2.352-4.274H8.96l-1.485 2.831h-.085L5.9 32.636H4.366l2.358 4.275V39.4h1.415zm4.41.113c1.589 0 2.545-1.008 2.545-2.7 0-1.679-.97-2.696-2.546-2.696-1.575 0-2.545 1.022-2.545 2.696 0 1.692.956 2.7 2.545 2.7zm0-1.116c-.732 0-1.144-.577-1.144-1.584 0-.994.417-1.58 1.143-1.58.722 0 1.144.586 1.144 1.58 0 1.003-.417 1.584-1.144 1.584zm5.075 1.116c.783 0 1.266-.343 1.51-.943h.084v.83h1.322v-5.17h-1.364v2.98c0 .69-.366 1.117-1.045 1.117-.629 0-.952-.366-.952-1.079V34.23h-1.364v3.37c0 1.2.694 1.913 1.81 1.913zm5.306-.113v-2.864c0-.727.51-1.167 1.256-1.167.22 0 .54.042.647.084v-1.242c-.117-.042-.347-.066-.534-.066-.657 0-1.191.394-1.327.91h-.084v-.825h-1.322v5.17h1.364zM2.709 50.573c1.697 0 2.743-.834 2.743-2.198 0-1.05-.586-1.636-1.946-1.922l-.815-.173c-.793-.17-1.116-.408-1.116-.825 0-.516.469-.844 1.177-.844.684 0 1.18.356 1.246.89H5.33c-.043-1.204-1.097-2.038-2.588-2.038-1.56 0-2.587.839-2.587 2.114 0 1.03.604 1.673 1.837 1.93l.881.188c.83.178 1.168.427 1.168.858 0 .511-.52.867-1.257.867-.796 0-1.35-.351-1.415-.9H0c.052 1.261 1.097 2.053 2.71 2.053zm5.85-.06c1.265 0 2.16-.615 2.362-1.585h-1.27c-.145.342-.516.535-1.055.535-.712 0-1.162-.479-1.181-1.247v-.07h3.548v-.418c0-1.64-.9-2.61-2.423-2.61-1.538 0-2.484 1.04-2.484 2.723 0 1.678.928 2.672 2.503 2.672zm1.064-3.24H7.42c.047-.67.492-1.11 1.125-1.11.637 0 1.05.426 1.078 1.11zM13.1 50.4v-2.864c0-.727.511-1.167 1.256-1.167.22 0 .54.042.647.084v-1.242c-.117-.042-.347-.066-.534-.066-.656 0-1.19.394-1.327.91h-.084v-.825h-1.322v5.17H13.1zm5.428 0l1.786-5.17h-1.44l-1.059 3.853h-.084l-1.069-3.853h-1.467l1.795 5.17h1.538zm4.405.113c1.266 0 2.161-.615 2.363-1.585h-1.27c-.146.342-.516.535-1.055.535-.713 0-1.163-.479-1.181-1.247v-.07h3.548v-.418c0-1.64-.9-2.61-2.423-2.61-1.538 0-2.485 1.04-2.485 2.723 0 1.678.928 2.672 2.503 2.672zm1.064-3.24h-2.203c.047-.67.492-1.11 1.125-1.11.638 0 1.05.426 1.078 1.11zm3.478 3.127v-2.864c0-.727.51-1.167 1.256-1.167.22 0 .54.042.647.084v-1.242c-.117-.042-.347-.066-.534-.066-.657 0-1.191.394-1.327.91h-.084v-.825H26.11v5.17h1.364z" transform="translate(35.995 39.2)"/>
                            <g stroke="#6236FF" stroke-linecap="round" stroke-linejoin="round" stroke-width="1.6" transform="translate(35.995 39.2) translate(6.416)">
                                <rect width="15.993" height="6.4" rx="1.6"/>
                                <rect width="15.993" height="6.4" y="9.6" rx="1.6"/>
                                <path d="M3.199 3.2L3.207 3.2M3.199 12.8L3.207 12.8"/>
                            </g>
                        </g>
                        <rect width="99.8" height="46.4" x="145.2" y="6.8" fill="#FAFAFA" stroke="#000" stroke-opacity=".25" stroke-width=".8" rx="2.4"/>
                        <path fill="#6236FF" fill-rule="nonzero" d="M183.8 34.6v-6.764h-1.415V34.6h1.415zm2.526 0v-3.113c0-.576.38-.993.914-.993.535 0 .853.314.853.862V34.6h1.313v-3.164c0-.549.356-.942.91-.942.576 0 .862.304.862.919V34.6h1.364v-3.548c0-1.064-.642-1.735-1.674-1.735-.722 0-1.317.38-1.556.956h-.084c-.207-.6-.703-.956-1.43-.956-.68 0-1.219.366-1.43.956h-.084v-.843h-1.322v5.17h1.364zm8.61.08c.67 0 1.233-.282 1.5-.755h.085v.675h1.322v-3.53c0-1.106-.774-1.753-2.143-1.753-1.298 0-2.175.6-2.264 1.556h1.257c.112-.309.44-.478.932-.478.563 0 .872.244.872.675v.422l-1.251.075c-1.285.075-2.002.619-2.002 1.556 0 .947.699 1.557 1.692 1.557zm.45-1.027c-.473 0-.806-.234-.806-.619 0-.37.286-.58.872-.623l1.045-.066v.38c0 .525-.478.928-1.11.928zm5.733 2.906c1.56 0 2.55-.764 2.55-1.978V29.43h-1.322v.83h-.085c-.276-.568-.872-.915-1.57-.915-1.313 0-2.119 1.022-2.119 2.625 0 1.557.802 2.555 2.09 2.555.727 0 1.271-.29 1.557-.834h.084v.956c0 .581-.426.919-1.157.919-.59 0-.975-.202-1.046-.52h-1.35c.085.909.994 1.513 2.368 1.513zm.018-3.112c-.74 0-1.162-.567-1.162-1.481 0-.905.426-1.477 1.162-1.477s1.182.572 1.182 1.481c0 .91-.441 1.477-1.182 1.477zm5.807 1.265c1.266 0 2.161-.614 2.363-1.584h-1.27c-.146.342-.516.535-1.055.535-.713 0-1.163-.479-1.181-1.247v-.07h3.548v-.418c0-1.64-.9-2.61-2.423-2.61-1.538 0-2.485 1.04-2.485 2.723 0 1.678.928 2.672 2.503 2.672zm1.065-3.239h-2.204c.047-.67.493-1.11 1.125-1.11.638 0 1.05.426 1.079 1.11z"/>
                        <rect width="99.8" height="46.4" x="145.2" y="66.8" fill="#FAFAFA" stroke="#000" stroke-opacity=".25" stroke-width=".8" rx="2.4"/>
                        <path fill="#6236FF" fill-rule="nonzero" d="M172.095 88.2c1.444 0 2.339-.75 2.339-1.936 0-.872-.652-1.547-1.547-1.612v-.085c.694-.103 1.224-.726 1.224-1.444 0-1.045-.783-1.687-2.096-1.687h-2.958V88.2h3.038zm-.558-3.96h-1.064v-1.721h1.181c.675 0 1.064.323 1.064.862 0 .544-.417.858-1.18.858zm.197 2.877h-1.261v-1.922h1.228c.835 0 1.29.328 1.29.947 0 .633-.441.975-1.257.975zm4.916 1.163c.67 0 1.233-.282 1.5-.755h.085v.675h1.322v-3.53c0-1.106-.774-1.753-2.142-1.753-1.299 0-2.175.6-2.265 1.556h1.257c.112-.309.44-.478.933-.478.562 0 .871.244.871.675v.422l-1.251.075c-1.285.075-2.002.619-2.002 1.556 0 .947.699 1.557 1.692 1.557zm.45-1.027c-.473 0-.806-.234-.806-.619 0-.37.286-.58.872-.623l1.045-.066v.38c0 .525-.478.928-1.11.928zm5.728 1.06c1.345 0 2.189-.746 2.301-1.904h-1.275c-.103.511-.468.783-1.026.783-.731 0-1.149-.558-1.149-1.589 0-1.017.413-1.566 1.149-1.566.581 0 .933.324 1.026.816h1.275c-.112-1.176-.932-1.936-2.301-1.936-1.617 0-2.527.97-2.527 2.686 0 1.735.914 2.71 2.527 2.71zm4.434-.113v-1.716l.375-.384 1.509 2.1h1.617l-2.104-2.953 1.968-2.217h-1.551l-1.73 2.02h-.084v-3.994h-1.364V88.2h1.364zm5.994 1.96c1.561 0 2.55-.765 2.55-1.979V83.03h-1.322v.83h-.084c-.277-.568-.872-.915-1.57-.915-1.313 0-2.119 1.022-2.119 2.625 0 1.557.802 2.555 2.09 2.555.727 0 1.27-.29 1.557-.834h.084v.956c0 .581-.426.919-1.158.919-.59 0-.975-.202-1.045-.52h-1.35c.084.909.994 1.513 2.367 1.513zm.019-3.113c-.74 0-1.162-.567-1.162-1.481 0-.905.426-1.477 1.162-1.477s1.181.572 1.181 1.481c0 .91-.44 1.477-1.181 1.477zm4.921 1.153v-2.864c0-.727.511-1.167 1.256-1.167.22 0 .54.042.647.084v-1.242c-.117-.042-.347-.066-.534-.066-.656 0-1.19.394-1.327.91h-.084v-.825h-1.322v5.17h1.364zm4.645.112c1.589 0 2.545-1.007 2.545-2.7 0-1.678-.97-2.695-2.545-2.695s-2.545 1.022-2.545 2.695c0 1.693.956 2.7 2.545 2.7zm0-1.115c-.731 0-1.144-.577-1.144-1.585 0-.993.417-1.58 1.144-1.58.722 0 1.144.587 1.144 1.58 0 1.004-.418 1.585-1.144 1.585zm5.076 1.115c.783 0 1.265-.342 1.51-.942h.084v.83h1.321v-5.17h-1.364v2.98c0 .69-.365 1.117-1.045 1.117-.628 0-.952-.366-.952-1.079V83.03h-1.364v3.37c0 1.2.694 1.912 1.81 1.912zm5.305-.112v-2.981c0-.68.39-1.125 1.022-1.125.647 0 .952.375.952 1.087V88.2h1.364v-3.342c0-1.238-.619-1.94-1.767-1.94-.764 0-1.29.36-1.528.941h-.085v-.83h-1.322V88.2h1.364zm6.168.08c.718 0 1.304-.333 1.58-.89h.084v.81h1.322v-7.144h-1.364v2.799h-.08c-.267-.572-.843-.91-1.542-.91-1.298 0-2.104 1.018-2.104 2.663 0 1.65.801 2.672 2.104 2.672zm.464-1.14c-.73 0-1.167-.571-1.167-1.528 0-.946.44-1.523 1.167-1.523.727 0 1.172.586 1.172 1.528 0 .947-.44 1.524-1.172 1.524zM176.777 99.2v-2.452h1.158l1.26 2.452h1.604l-1.425-2.672c.778-.31 1.228-1.06 1.228-1.922 0-1.345-.914-2.17-2.4-2.17h-2.84V99.2h1.415zm1.242-3.54h-1.242v-2.08h1.228c.703 0 1.144.403 1.144 1.045 0 .652-.418 1.036-1.13 1.036zm5.615 3.653c1.265 0 2.16-.615 2.362-1.585h-1.27c-.145.342-.516.535-1.055.535-.712 0-1.162-.479-1.18-1.247v-.07h3.548v-.418c0-1.64-.9-2.61-2.424-2.61-1.537 0-2.484 1.04-2.484 2.723 0 1.678.928 2.671 2.503 2.671zm1.064-3.24h-2.203c.047-.67.492-1.11 1.125-1.11.637 0 1.05.426 1.078 1.11zm3.477 3.127v-3.112c0-.577.38-.994.914-.994.535 0 .854.314.854.862V99.2h1.312v-3.164c0-.549.356-.942.91-.942.576 0 .862.304.862.919V99.2h1.364v-3.548c0-1.064-.642-1.735-1.673-1.735-.722 0-1.318.38-1.557.956h-.084c-.206-.6-.703-.956-1.43-.956-.68 0-1.219.366-1.43.956h-.084v-.843h-1.322v5.17h1.364zm9.487.112c1.59 0 2.546-1.007 2.546-2.7 0-1.678-.97-2.695-2.546-2.695-1.575 0-2.545 1.022-2.545 2.695 0 1.693.956 2.7 2.545 2.7zm0-1.115c-.731 0-1.144-.577-1.144-1.585 0-.993.418-1.58 1.144-1.58.722 0 1.144.587 1.144 1.58 0 1.004-.417 1.585-1.144 1.585zm5.99 1.003l1.786-5.17H204l-1.06 3.853h-.084l-1.068-3.853h-1.468l1.796 5.17h1.537zm4.406.112c1.265 0 2.16-.614 2.362-1.584h-1.27c-.145.342-.516.535-1.055.535-.712 0-1.162-.479-1.181-1.247v-.07h3.548v-.418c0-1.64-.9-2.61-2.423-2.61-1.538 0-2.484 1.04-2.484 2.723 0 1.678.928 2.671 2.503 2.671zm1.064-3.239h-2.203c.047-.67.492-1.11 1.125-1.11.637 0 1.05.426 1.078 1.11zm3.965 3.207c.717 0 1.303-.333 1.58-.89h.084v.81h1.322v-7.144h-1.364v2.799h-.08c-.267-.572-.844-.91-1.542-.91-1.299 0-2.105 1.018-2.105 2.663 0 1.65.802 2.672 2.105 2.672zm.464-1.14c-.731 0-1.167-.571-1.167-1.528 0-.946.44-1.523 1.167-1.523.726 0 1.172.586 1.172 1.528 0 .947-.44 1.524-1.172 1.524z"/>
                        <rect width="99.954" height="124.8" x="289.858" y=".4" fill="#FAFAFA" stroke="#000" stroke-opacity=".25" stroke-width=".8" rx="2.4"/>
                        <g>
                            <path fill="#6236FF" fill-rule="nonzero" d="M3.747 39.573c1.632 0 2.822-1.007 2.94-2.47H5.307c-.136.745-.745 1.224-1.556 1.224-1.069 0-1.73-.886-1.73-2.311 0-1.425.661-2.307 1.725-2.307.807 0 1.42.511 1.557 1.29h1.378c-.103-1.472-1.332-2.537-2.935-2.537-1.964 0-3.173 1.355-3.173 3.554 0 2.203 1.214 3.557 3.173 3.557zM8.96 39.4v-4.523h.075l1.725 4.157h.942l1.72-4.157h.076V39.4h1.312v-6.764h-1.664l-1.875 4.566h-.084l-1.87-4.566h-1.67V39.4H8.96zm10.218 0l.52-1.612h2.376l.511 1.612h1.533l-2.348-6.764h-1.664L17.756 39.4h1.42zm2.596-2.705h-1.771l.848-2.653h.084l.84 2.653zm4.57 2.705v-2.1h1.336c1.425 0 2.414-.933 2.414-2.325 0-1.406-.951-2.34-2.344-2.34h-2.822V39.4h1.416zm1.027-3.248h-1.027v-2.354h1.031c.816 0 1.28.413 1.28 1.182 0 .76-.473 1.172-1.284 1.172zm5.099 3.248v-6.764h-1.416V39.4h1.416z" transform="translate(323.335 44.8)"/>
                            <g transform="translate(323.335 44.8) translate(7.764)">
                                <path fill="#6236FF" d="M8.796 14.4H3.199V8.8h5.597V3.2h5.597v5.6H8.796v5.6z"/>
                                <rect width="17.592" height="17.6" stroke="#6236FF" stroke-width="1.6" rx="2.4"/>
                            </g>
                        </g>
                    </g>
                </g>
            </g>
        </g>
    </g>
</svg>
